<svg height="300" viewBox="0 0 278.44113 300" width="278.44113"
  xmlns="http://www.w3.org/2000/svg" xml:space="preserve"><path style="fill:#0069b4;fill-opacity:1;fill-rule:nonzero;stroke:none;stroke-width:1.91584" d="M376.345 361.717c-1.352.717-33.95 17.551-101.558 17.415-67.605-.134-100.134-17.097-101.484-17.819a5.28 5.28 0 0 1-2.796-4.677l.177-89.665c.07-35.198 19.225-67.69 49.992-84.795l47.049-26.155c4.556-2.53 10.48-2.514 15.018.03l46.946 26.345c30.696 17.226 49.722 49.79 49.649 84.987l-.176 89.67a5.282 5.282 0 0 1-2.817 4.664" transform="matrix(1.33333 0 0 -1.33333 -227.343 505.51)"/>
  <path
    style="fill:#fff;fill-opacity:1;fill-rule:nonzero;stroke:none;stroke-width:1.91584"
    d="M259.561 264.721c-1.623 2.794-5.213 3.753-8.01 2.13l-45.56-26.28a5.869 5.869 0 0 1-2.13-8.015 5.881 5.881 0 0 1 5.086-2.92 5.879 5.879 0 0 1 2.92.788l45.564 26.285a5.832 5.832 0 0 1 2.726 3.566c.4 1.513.19 3.092-.596 4.446M344.133 240.848l-45.66 26.098a5.87 5.87 0 0 1-8.002-2.162 5.847 5.847 0 0 1-.577-4.45 5.827 5.827 0 0 1 2.745-3.558l45.66-26.1a5.891 5.891 0 0 1 2.926-.777 5.88 5.88 0 0 1 5.075 2.94 5.871 5.871 0 0 1-2.167 8.009M281.92 336.339c.007-3.884-3.149-7.05-7.032-7.06-3.883-.006-7.052 3.148-7.058 7.031-.008 3.885 3.146 7.052 7.03 7.06a7.052 7.052 0 0 0 7.06-7.031m-7.082 18.754c-10.351-.021-18.752-8.456-18.733-18.806.017-8.18 5.332-15.315 12.943-17.796l.046-23.383a5.871 5.871 0 0 1 5.874-5.85 5.868 5.868 0 0 1 5.85 5.873l-.047 23.383c7.603 2.512 12.888 9.667 12.871 17.848-.021 10.35-8.456 18.752-18.804 18.731"
    transform="matrix(1.33333 0 0 -1.33333 -227.343 505.51)"/>
  <path
    style="fill:#f59d25;fill-opacity:1;fill-rule:nonzero;stroke:none;stroke-width:1.91584"
    d="M346.135 315.08a5.82 5.82 0 0 1-3.561 2.722 5.818 5.818 0 0 1-4.449-.596l-63.14-36.62-63.282 36.369a5.837 5.837 0 0 1-4.451.577 5.822 5.822 0 0 1-3.556-2.738 5.87 5.87 0 0 1 2.161-8.003l63.286-36.37.154-76.362a5.867 5.867 0 0 1 5.872-5.852 5.87 5.87 0 0 1 5.85 5.875l-.013 7.21 8.198.015a5.872 5.872 0 0 1 5.851 5.876 5.87 5.87 0 0 1-5.874 5.85l-8.2-.014-.01 4.672 8.202.018a5.867 5.867 0 0 1 5.847 5.874 5.866 5.866 0 0 1-5.872 5.85l-8.198-.015-.082 41.028 63.14 36.621a5.871 5.871 0 0 1 2.127 8.012"
    transform="matrix(1.33333 0 0 -1.33333 -227.343 505.51)"/></svg>